<?xml version="1.0" standalone="no"?>
<!DOCTYPE svg PUBLIC "-//W3C//DTD SVG 20010904//EN"
 "http://www.w3.org/TR/2001/REC-SVG-20010904/DTD/svg10.dtd">
<svg version="1.0" xmlns="http://www.w3.org/2000/svg"
 width="577.000000pt" height="577.000000pt" viewBox="0 0 577.000000 577.000000"
 preserveAspectRatio="xMidYMid meet">
<metadata>
Created by potrace 1.11, written by Peter Selinger 2001-2013
</metadata>
<g transform="translate(0.000000,577.000000) scale(0.100000,-0.100000)"
fill="#000000" stroke="none">
<path d="M2364 5471 c-99 -25 -184 -94 -230 -187 -25 -52 -29 -70 -29 -149 0
-82 3 -97 33 -157 18 -36 48 -80 66 -96 19 -17 33 -33 30 -36 -2 -3 -1 -4 2
-1 4 2 26 -7 49 -20 43 -24 116 -40 168 -38 17 1 25 -2 21 -9 -5 -7 -2 -8 7
-2 8 5 16 9 19 10 3 0 12 3 20 6 8 3 35 13 60 22 25 9 67 34 94 56 26 22 53
37 60 33 6 -4 4 2 -4 12 -14 17 -13 18 2 12 12 -4 16 -1 13 13 -2 10 3 24 11
31 8 6 14 23 14 36 0 19 4 24 16 19 14 -5 15 -4 5 8 -7 8 -10 20 -6 27 7 10 7
98 1 144 -4 26 -22 73 -43 109 -15 28 -103 121 -103 109 0 -3 -6 0 -14 6 -44
37 -188 60 -262 42z"/>
<path d="M2810 5109 c0 -5 5 -7 10 -4 6 3 10 8 10 11 0 2 -4 4 -10 4 -5 0 -10
-5 -10 -11z"/>
<path d="M2805 4969 c-3 -4 2 -6 10 -5 21 3 28 13 10 13 -9 0 -18 -4 -20 -8z"/>
<path d="M2756 4912 c-3 -5 1 -9 9 -9 8 0 12 4 9 9 -3 4 -7 8 -9 8 -2 0 -6 -4
-9 -8z"/>
<path d="M2740 4876 c0 -2 8 -10 18 -17 15 -13 16 -12 3 4 -13 16 -21 21 -21
13z"/>
<path d="M2810 4869 c0 -5 5 -7 10 -4 6 3 10 8 10 11 0 2 -4 4 -10 4 -5 0 -10
-5 -10 -11z"/>
<path d="M2666 4852 c-2 -4 13 -7 35 -7 21 -1 36 1 33 4 -8 8 -63 10 -68 3z"/>
<path d="M2613 4805 c0 -8 4 -12 9 -9 5 3 6 10 3 15 -9 13 -12 11 -12 -6z"/>
<path d="M2777 4805 c-4 -8 -3 -16 1 -19 4 -3 9 4 9 15 2 23 -3 25 -10 4z"/>
<path d="M2519 4763 c-13 -16 -12 -17 4 -4 16 13 21 21 13 21 -2 0 -10 -8 -17
-17z"/>
<path d="M2550 4769 c0 -5 5 -7 10 -4 6 3 10 8 10 11 0 2 -4 4 -10 4 -5 0 -10
-5 -10 -11z"/>
<path d="M2630 4775 c0 -7 30 -13 34 -7 3 4 -4 9 -15 9 -10 1 -19 0 -19 -2z"/>
<path d="M2450 4749 c0 -5 5 -7 10 -4 6 3 10 8 10 11 0 2 -4 4 -10 4 -5 0 -10
-5 -10 -11z"/>
<path d="M2515 4729 c-3 -4 2 -6 10 -5 21 3 28 13 10 13 -9 0 -18 -4 -20 -8z"/>
<path d="M2570 4710 c0 -5 5 -10 11 -10 5 0 7 5 4 10 -3 6 -8 10 -11 10 -2 0
-4 -4 -4 -10z"/>
<path d="M3385 4654 c-222 -43 -401 -212 -455 -429 -18 -72 -20 -180 -6 -256
13 -71 69 -199 107 -245 62 -74 156 -151 204 -165 11 -3 19 -11 17 -18 -1 -7
2 -9 8 -6 6 4 23 2 38 -4 34 -13 79 -23 115 -24 15 -1 27 -4 27 -7 0 -3 21 -4
47 -4 27 1 57 -3 68 -9 11 -6 25 -10 31 -9 19 4 113 -88 135 -129 11 -22 17
-39 13 -39 -4 0 -1 -7 6 -15 10 -12 10 -15 0 -15 -9 0 -10 -4 -2 -13 6 -7 9
-26 6 -42 -22 -151 -24 -208 -9 -325 12 -85 8 -132 -14 -183 -39 -89 -123
-145 -229 -154 -276 -22 -468 -161 -547 -398 -30 -88 -40 -211 -24 -285 6 -27
10 -52 10 -55 -1 -14 67 -158 89 -187 25 -34 101 -111 136 -138 25 -20 128
-70 144 -70 10 0 10 -4 -1 -17 -11 -15 -11 -16 1 -5 15 13 44 17 37 5 -3 -5 9
-9 26 -9 76 -3 96 -7 90 -18 -4 -6 2 -4 12 4 10 8 16 10 12 3 -4 -6 -3 -15 3
-18 6 -4 9 -1 8 7 -2 7 4 13 12 13 8 0 14 -6 12 -13 -1 -8 2 -11 8 -7 6 3 8
10 6 14 -3 4 1 8 9 8 8 0 15 -5 15 -11 0 -6 4 -5 9 2 5 8 29 15 59 15 27 1 48
5 46 9 -2 3 18 14 45 23 52 17 157 80 180 108 7 9 18 14 24 10 5 -3 7 -2 4 3
-3 6 12 29 33 52 22 23 37 42 34 42 -3 0 2 7 10 16 9 8 16 22 16 30 0 8 4 14
8 14 5 0 9 6 10 13 0 6 10 37 21 67 11 30 20 65 21 78 0 12 6 22 13 22 7 0 8
3 2 8 -12 8 -15 62 -3 62 4 0 4 7 1 17 -5 12 -3 14 8 8 10 -6 11 -5 3 4 -14
15 -6 63 9 54 6 -4 7 -1 2 6 -9 15 14 63 26 55 5 -3 6 2 2 12 -5 13 -2 15 15
9 14 -4 22 -2 22 5 0 6 -4 8 -10 5 -16 -10 -12 4 8 24 26 28 100 64 118 57 8
-3 12 -2 9 4 -4 6 18 8 62 4 91 -8 96 -9 111 -18 6 -4 12 -4 12 0 0 3 8 0 17
-7 11 -10 14 -10 9 -1 -4 7 -1 12 8 12 9 0 16 -6 16 -12 0 -10 2 -10 9 0 9 16
20 15 40 -1 12 -9 13 -9 7 1 -5 8 1 12 21 13 46 1 95 8 156 24 33 8 64 12 69
8 6 -3 8 -1 4 5 -3 6 4 13 16 17 39 11 133 59 141 73 4 6 12 12 17 12 10 0 44
27 82 63 10 9 21 17 26 17 4 0 20 19 36 41 21 31 33 39 49 35 14 -3 17 -2 9 6
-8 8 -7 15 6 25 9 8 10 11 3 7 -16 -8 25 55 44 68 6 5 6 8 0 8 -6 0 -6 3 0 8
6 4 19 26 29 50 11 23 23 42 29 42 5 0 6 7 3 16 -4 9 -2 22 3 28 5 6 10 14 10
19 4 39 15 87 20 87 10 0 16 198 6 208 -3 3 0 11 6 19 6 7 7 13 2 13 -5 0 -9
10 -8 23 1 12 0 26 -3 32 -3 5 -7 21 -9 35 -6 46 -9 59 -16 66 -4 4 -7 15 -7
24 0 8 -9 33 -20 55 -11 22 -20 43 -20 47 0 8 -48 86 -77 127 -38 52 -106 121
-161 163 -31 23 -59 45 -62 48 -3 3 -39 22 -80 42 -150 73 -295 96 -470 73
-108 -14 -143 -11 -200 13 -58 24 -130 93 -130 125 0 9 -4 17 -9 17 -13 0 -19
58 -7 71 8 9 8 10 -1 5 -9 -5 -13 0 -14 16 -3 72 -9 118 -23 156 -8 23 -13 42
-11 42 3 0 -7 20 -21 45 -14 25 -22 51 -18 57 4 7 3 8 -4 4 -6 -4 -17 5 -26
21 -21 40 -149 163 -169 163 -5 0 -21 8 -35 18 -78 53 -264 81 -387 56z"/>
<path d="M1359 4329 c-64 -10 -113 -35 -150 -77 -45 -51 -62 -98 -62 -172 0
-68 19 -118 65 -172 27 -31 90 -68 118 -68 10 0 21 -4 25 -9 3 -6 17 -6 35 -1
20 6 30 5 30 -2 0 -6 6 -6 15 2 8 7 26 10 40 8 13 -3 22 -2 20 3 -3 4 3 10 14
14 60 19 132 125 134 197 1 24 9 48 17 56 13 10 12 11 -5 5 -18 -6 -19 -5 -5
12 8 10 10 16 3 12 -8 -5 -16 6 -23 33 -28 104 -153 177 -271 159z"/>
<path d="M1669 4173 c-13 -16 -12 -17 4 -4 9 7 17 15 17 17 0 8 -8 3 -21 -13z"/>
<path d="M4115 4090 c3 -5 8 -10 11 -10 2 0 4 5 4 10 0 6 -5 10 -11 10 -5 0
-7 -4 -4 -10z"/>
<path d="M4114 4050 c0 -13 4 -16 10 -10 7 7 7 13 0 20 -6 6 -10 3 -10 -10z"/>
<path d="M4153 3975 c0 -8 4 -15 9 -15 4 0 8 4 8 9 0 6 -4 12 -8 15 -5 3 -9
-1 -9 -9z"/>
<path d="M1615 3930 c-3 -5 -1 -10 4 -10 6 0 11 5 11 10 0 6 -2 10 -4 10 -3 0
-8 -4 -11 -10z"/>
<path d="M1636 3888 c3 -5 10 -6 15 -3 13 9 11 12 -6 12 -8 0 -12 -4 -9 -9z"/>
<path d="M1590 3866 c7 -7 13 -7 20 0 6 6 3 10 -10 10 -13 0 -16 -4 -10 -10z"/>
<path d="M1586 3812 c-3 -5 1 -9 9 -9 8 0 15 4 15 9 0 4 -4 8 -9 8 -6 0 -12
-4 -15 -8z"/>
<path d="M1469 3773 c-13 -16 -12 -17 4 -4 9 7 17 15 17 17 0 8 -8 3 -21 -13z"/>
<path d="M1593 3775 c0 -8 4 -12 9 -9 5 3 6 10 3 15 -9 13 -12 11 -12 -6z"/>
<path d="M3153 3565 c0 -8 4 -12 9 -9 5 3 6 10 3 15 -9 13 -12 11 -12 -6z"/>
<path d="M3455 3481 c-3 -5 -2 -12 3 -15 5 -3 9 1 9 9 0 17 -3 19 -12 6z"/>
<path d="M3535 3459 c-4 -6 -5 -12 -2 -15 2 -3 7 2 10 11 7 17 1 20 -8 4z"/>
<path d="M3346 3452 c-3 -5 1 -9 9 -9 8 0 12 4 9 9 -3 4 -7 8 -9 8 -2 0 -6 -4
-9 -8z"/>
<path d="M3614 3392 c4 -3 14 -7 22 -8 9 -1 13 0 10 4 -4 3 -14 7 -22 8 -9 1
-13 0 -10 -4z"/>
<path d="M2408 3375 c-2 -2 -17 -5 -34 -8 -94 -15 -196 -93 -241 -186 -25 -50
-28 -66 -27 -151 1 -81 5 -104 27 -151 28 -60 105 -138 161 -163 37 -17 95
-31 115 -27 8 1 10 -2 5 -10 -4 -7 -3 -10 3 -6 6 4 32 9 59 12 73 7 86 11 128
34 20 12 42 19 47 15 5 -3 8 -1 7 4 -4 13 41 51 55 48 7 -1 9 -1 5 1 -15 8 -8
22 30 60 20 20 29 31 19 24 -16 -13 -16 -10 2 32 17 38 19 63 16 139 -5 113
-6 118 -18 118 -6 0 -7 3 -4 7 4 3 0 15 -10 25 -9 10 -13 18 -9 18 4 0 -14 23
-41 51 -50 53 -113 91 -173 104 -36 8 -117 14 -122 10z"/>
<path d="M278 3216 c-89 -32 -129 -88 -130 -186 -2 -100 59 -175 158 -195 21
-5 44 -7 49 -6 39 11 59 10 68 -1 6 -9 7 -8 3 6 -5 15 -2 17 14 13 11 -3 18
-2 15 2 -6 11 40 53 49 44 4 -5 7 -3 6 2 -5 23 1 36 13 29 6 -4 9 -4 5 0 -3 4
-2 22 4 39 13 43 16 117 4 109 -5 -3 -7 2 -3 11 3 9 2 19 -4 23 -6 3 -8 13 -5
21 3 8 2 12 -3 9 -4 -3 -14 5 -21 18 -28 53 -151 87 -222 62z"/>
<path d="M5473 3175 c0 -8 4 -12 9 -9 5 3 6 10 3 15 -9 13 -12 11 -12 -6z"/>
<path d="M5410 3155 c0 -5 5 -17 10 -25 5 -8 10 -10 10 -5 0 6 -5 17 -10 25
-5 8 -10 11 -10 5z"/>
<path d="M2790 3136 c0 -2 7 -7 16 -10 8 -3 12 -2 9 4 -6 10 -25 14 -25 6z"/>
<path d="M5393 2955 c0 -8 4 -12 9 -9 5 3 6 10 3 15 -9 13 -12 11 -12 -6z"/>
<path d="M2855 2950 c3 -5 8 -10 11 -10 2 0 4 5 4 10 0 6 -5 10 -11 10 -5 0
-7 -4 -4 -10z"/>
<path d="M550 2930 c0 -5 5 -10 11 -10 5 0 7 5 4 10 -3 6 -8 10 -11 10 -2 0
-4 -4 -4 -10z"/>
<path d="M595 2930 c-3 -5 -1 -10 4 -10 6 0 11 5 11 10 0 6 -2 10 -4 10 -3 0
-8 -4 -11 -10z"/>
<path d="M2850 2909 c0 -5 5 -7 10 -4 6 3 10 8 10 11 0 2 -4 4 -10 4 -5 0 -10
-5 -10 -11z"/>
<path d="M516 2883 c-6 -14 -5 -15 5 -6 7 7 10 15 7 18 -3 3 -9 -2 -12 -12z"/>
<path d="M550 2890 c0 -5 5 -10 11 -10 5 0 7 5 4 10 -3 6 -8 10 -11 10 -2 0
-4 -4 -4 -10z"/>
<path d="M5504 2892 c4 -3 14 -7 22 -8 9 -1 13 0 10 4 -4 3 -14 7 -22 8 -9 1
-13 0 -10 -4z"/>
<path d="M2796 2868 c3 -5 10 -6 15 -3 13 9 11 12 -6 12 -8 0 -12 -4 -9 -9z"/>
<path d="M5450 2870 c0 -5 5 -10 11 -10 5 0 7 5 4 10 -3 6 -8 10 -11 10 -2 0
-4 -4 -4 -10z"/>
<path d="M2834 2856 c1 -8 5 -18 8 -22 4 -3 5 1 4 10 -1 8 -5 18 -8 22 -4 3
-5 -1 -4 -10z"/>
<path d="M546 2852 c-3 -5 1 -9 9 -9 8 0 15 4 15 9 0 4 -4 8 -9 8 -6 0 -12 -4
-15 -8z"/>
<path d="M5390 2826 c7 -7 13 -7 20 0 6 6 3 10 -10 10 -13 0 -16 -4 -10 -10z"/>
<path d="M2776 2817 c3 -10 9 -15 12 -12 3 3 0 11 -7 18 -10 9 -11 8 -5 -6z"/>
<path d="M2753 2813 c4 -3 1 -13 -6 -22 -11 -14 -10 -14 5 -2 16 12 16 31 1
31 -4 0 -3 -3 0 -7z"/>
<path d="M2854 2806 c1 -8 5 -18 8 -22 4 -3 5 1 4 10 -1 8 -5 18 -8 22 -4 3
-5 -1 -4 -10z"/>
<path d="M5356 2812 c-3 -5 1 -9 9 -9 8 0 12 4 9 9 -3 4 -7 8 -9 8 -2 0 -6 -4
-9 -8z"/>
<path d="M490 2789 c0 -5 5 -7 10 -4 6 3 10 8 10 11 0 2 -4 4 -10 4 -5 0 -10
-5 -10 -11z"/>
<path d="M5433 2785 c0 -8 4 -12 9 -9 5 3 6 10 3 15 -9 13 -12 11 -12 -6z"/>
<path d="M5369 2773 c-13 -16 -12 -17 4 -4 9 7 17 15 17 17 0 8 -8 3 -21 -13z"/>
<path d="M2683 2748 c-11 -19 -13 -39 -1 -32 5 3 7 9 4 12 -3 3 -1 11 5 19 6
7 9 13 6 13 -3 0 -9 -6 -14 -12z"/>
<path d="M2715 2752 c3 -3 -1 -12 -7 -21 -8 -10 -4 -9 10 3 26 23 26 23 7 23
-8 0 -13 -3 -10 -5z"/>
<path d="M2840 2730 c-8 -5 -10 -10 -5 -10 6 0 17 5 25 10 8 5 11 10 5 10 -5
0 -17 -5 -25 -10z"/>
<path d="M5399 2723 c-13 -16 -12 -17 4 -4 9 7 17 15 17 17 0 8 -8 3 -21 -13z"/>
<path d="M2630 2726 c0 -2 8 -10 18 -17 15 -13 16 -12 3 4 -13 16 -21 21 -21
13z"/>
<path d="M5434 2710 c0 -13 4 -16 10 -10 7 7 7 13 0 20 -6 6 -10 3 -10 -10z"/>
<path d="M5331 2697 c-13 -21 -12 -21 5 -5 10 10 16 20 13 22 -3 3 -11 -5 -18
-17z"/>
<path d="M5395 2690 c-3 -5 -1 -10 4 -10 6 0 11 5 11 10 0 6 -2 10 -4 10 -3 0
-8 -4 -11 -10z"/>
<path d="M5351 2677 c-8 -10 -7 -14 2 -14 8 0 14 6 14 14 0 7 -1 13 -2 13 -2
0 -8 -6 -14 -13z"/>
<path d="M2595 2650 c-3 -5 -1 -10 4 -10 6 0 11 5 11 10 0 6 -2 10 -4 10 -3 0
-8 -4 -11 -10z"/>
<path d="M5390 2649 c0 -5 5 -7 10 -4 6 3 10 8 10 11 0 2 -4 4 -10 4 -5 0 -10
-5 -10 -11z"/>
<path d="M2670 2635 c0 -7 30 -13 34 -7 3 4 -4 9 -15 9 -10 1 -19 0 -19 -2z"/>
<path d="M2750 2630 c0 -5 5 -10 11 -10 5 0 7 5 4 10 -3 6 -8 10 -11 10 -2 0
-4 -4 -4 -10z"/>
<path d="M2475 2610 c3 -5 8 -10 11 -10 2 0 4 5 4 10 0 6 -5 10 -11 10 -5 0
-7 -4 -4 -10z"/>
<path d="M2545 2610 c-3 -6 1 -7 9 -4 18 7 21 14 7 14 -6 0 -13 -4 -16 -10z"/>
<path d="M5350 2616 c0 -2 7 -7 16 -10 8 -3 12 -2 9 4 -6 10 -25 14 -25 6z"/>
<path d="M5425 2610 c-3 -6 1 -7 9 -4 18 7 21 14 7 14 -6 0 -13 -4 -16 -10z"/>
<path d="M5255 2591 c-10 -17 17 -24 31 -7 8 9 9 11 2 6 -16 -13 -31 -13 -23
0 3 6 4 10 1 10 -3 0 -7 -4 -11 -9z"/>
<path d="M5375 2550 c3 -5 8 -10 11 -10 2 0 4 5 4 10 0 6 -5 10 -11 10 -5 0
-7 -4 -4 -10z"/>
<path d="M5258 2538 c13 -16 56 -22 46 -6 -3 5 -10 6 -15 2 -5 -3 -18 0 -27 8
-15 12 -16 11 -4 -4z"/>
<path d="M2439 2523 c-13 -16 -12 -17 4 -4 9 7 17 15 17 17 0 8 -8 3 -21 -13z"/>
<path d="M5233 2517 c0 -8 6 -14 14 -14 9 0 10 4 2 14 -6 7 -12 13 -14 13 -1
0 -2 -6 -2 -13z"/>
<path d="M5176 2483 c-6 -14 -5 -15 5 -6 7 7 10 15 7 18 -3 3 -9 -2 -12 -12z"/>
<path d="M5290 2489 c0 -5 5 -7 10 -4 6 3 10 8 10 11 0 2 -4 4 -10 4 -5 0 -10
-5 -10 -11z"/>
<path d="M5210 2466 c0 -2 8 -10 18 -17 15 -13 16 -12 3 4 -13 16 -21 21 -21
13z"/>
<path d="M5158 2448 c-9 -5 -6 -7 9 -5 12 2 25 6 28 8 8 9 -23 6 -37 -3z"/>
<path d="M5290 2429 c0 -5 5 -7 10 -4 6 3 10 8 10 11 0 2 -4 4 -10 4 -5 0 -10
-5 -10 -11z"/>
<path d="M5110 2410 c0 -5 5 -10 10 -10 6 0 10 5 10 10 0 6 -4 10 -10 10 -5 0
-10 -4 -10 -10z"/>
<path d="M5130 2386 c0 -2 8 -10 18 -17 15 -13 16 -12 3 4 -13 16 -21 21 -21
13z"/>
<path d="M5254 2366 c1 -8 5 -18 8 -22 4 -3 5 1 4 10 -1 8 -5 18 -8 22 -4 3
-5 -1 -4 -10z"/>
<path d="M5040 2345 c-7 -8 -16 -13 -20 -10 -5 3 -11 2 -14 -3 -2 -4 6 -8 19
-8 14 0 22 2 20 5 -3 2 0 10 6 18 6 7 9 13 6 13 -2 0 -10 -7 -17 -15z"/>
<path d="M5095 2340 c-4 -6 -12 -7 -18 -4 -7 4 -9 4 -5 -1 4 -4 2 -15 -4 -24
-10 -12 -7 -12 8 2 11 9 23 15 26 12 2 -3 5 2 5 10 0 18 -3 19 -12 5z"/>
<path d="M5006 2295 c-11 -8 -15 -15 -9 -15 6 0 16 7 23 15 16 19 11 19 -14 0z"/>
<path d="M4935 2290 c-3 -5 -1 -10 4 -10 6 0 11 5 11 10 0 6 -2 10 -4 10 -3 0
-8 -4 -11 -10z"/>
<path d="M5175 2271 c-3 -5 -2 -12 3 -15 5 -3 9 1 9 9 0 17 -3 19 -12 6z"/>
<path d="M4989 2253 c-13 -16 -12 -17 4 -4 9 7 17 15 17 17 0 8 -8 3 -21 -13z"/>
<path d="M4850 2251 c0 -6 4 -13 10 -16 6 -3 7 1 4 9 -7 18 -14 21 -14 7z"/>
<path d="M5107 2249 c7 -7 15 -10 18 -7 3 3 -2 9 -12 12 -14 6 -15 5 -6 -5z"/>
<path d="M1306 2214 c-60 -21 -104 -60 -132 -117 -51 -99 -29 -237 46 -301 16
-13 26 -27 22 -31 -4 -4 -2 -5 3 -4 12 4 85 -23 85 -31 0 -13 131 2 171 19 24
11 47 17 53 14 5 -3 6 -1 3 4 -8 13 28 47 41 39 5 -3 9 1 9 9 0 8 -5 11 -11 8
-5 -4 0 7 12 24 12 17 22 36 22 43 0 6 3 9 8 6 4 -2 7 35 7 84 0 49 -3 86 -7
84 -5 -3 -8 0 -8 7 0 28 -73 109 -118 131 -56 27 -148 33 -206 12z"/>
<path d="M4833 2215 c0 -8 3 -13 5 -10 3 3 10 0 17 -5 8 -7 12 -5 12 5 0 8 -3
13 -5 10 -3 -3 -10 0 -17 5 -8 7 -12 5 -12 -5z"/>
<path d="M4350 2213 c0 -6 8 -17 18 -24 16 -13 16 -13 2 6 -8 11 -16 22 -17
24 -2 2 -3 0 -3 -6z"/>
<path d="M5013 2195 c0 -8 4 -12 9 -9 5 3 6 10 3 15 -9 13 -12 11 -12 -6z"/>
<path d="M4235 2189 c-4 -6 -5 -12 -2 -15 2 -3 7 2 10 11 7 17 1 20 -8 4z"/>
<path d="M4630 2186 c7 -7 13 -7 20 0 6 6 3 10 -10 10 -13 0 -16 -4 -10 -10z"/>
<path d="M4530 2171 c0 -6 4 -13 10 -16 6 -3 7 1 4 9 -7 18 -14 21 -14 7z"/>
<path d="M4187 2149 c7 -7 15 -10 18 -7 3 3 -2 9 -12 12 -14 6 -15 5 -6 -5z"/>
<path d="M4225 2150 c-3 -6 1 -7 9 -4 18 7 21 14 7 14 -6 0 -13 -4 -16 -10z"/>
<path d="M4267 2142 c3 -7 9 -10 12 -5 3 4 10 11 15 15 4 4 -1 6 -12 5 -12 -1
-18 -6 -15 -15z"/>
<path d="M4590 2156 c0 -2 7 -7 16 -10 8 -3 12 -2 9 4 -6 10 -25 14 -25 6z"/>
<path d="M4886 2148 c3 -5 10 -6 15 -3 13 9 11 12 -6 12 -8 0 -12 -4 -9 -9z"/>
<path d="M4240 2136 c0 -2 8 -10 18 -17 15 -13 16 -12 3 4 -13 16 -21 21 -21
13z"/>
<path d="M4380 2136 c0 -2 8 -10 18 -17 15 -13 16 -12 3 4 -13 16 -21 21 -21
13z"/>
<path d="M4700 2136 c0 -2 8 -10 18 -17 15 -13 16 -12 3 4 -13 16 -21 21 -21
13z"/>
<path d="M4220 2116 c0 -2 8 -10 18 -17 15 -13 16 -12 3 4 -13 16 -21 21 -21
13z"/>
<path d="M4530 2109 c0 -5 5 -7 10 -4 6 3 10 8 10 11 0 2 -4 4 -10 4 -5 0 -10
-5 -10 -11z"/>
<path d="M4655 2110 c-3 -5 -1 -10 4 -10 6 0 11 5 11 10 0 6 -2 10 -4 10 -3 0
-8 -4 -11 -10z"/>
<path d="M4775 2111 c-3 -5 -2 -12 3 -15 5 -3 9 1 9 9 0 17 -3 19 -12 6z"/>
<path d="M4176 2083 c-6 -14 -5 -15 5 -6 7 7 10 15 7 18 -3 3 -9 -2 -12 -12z"/>
<path d="M4260 2096 c0 -2 8 -10 18 -17 15 -13 16 -12 3 4 -13 16 -21 21 -21
13z"/>
<path d="M4131 2056 c-9 -10 -8 -15 2 -19 8 -3 13 3 13 14 0 23 0 23 -15 5z"/>
<path d="M4201 2026 c-9 -11 -9 -16 1 -22 7 -4 10 -4 6 1 -4 4 -3 14 3 22 6 7
9 13 6 13 -2 0 -10 -6 -16 -14z"/>
<path d="M4307 2009 c7 -7 15 -10 18 -7 3 3 -2 9 -12 12 -14 6 -15 5 -6 -5z"/>
<path d="M4120 1990 c-9 -6 -10 -10 -3 -10 6 0 15 5 18 10 8 12 4 12 -15 0z"/>
<path d="M4250 1990 c0 -5 5 -10 11 -10 5 0 7 5 4 10 -3 6 -8 10 -11 10 -2 0
-4 -4 -4 -10z"/>
<path d="M4153 1965 c0 -8 4 -12 9 -9 5 3 6 10 3 15 -9 13 -12 11 -12 -6z"/>
<path d="M4190 1949 c0 -5 5 -7 10 -4 6 3 10 8 10 11 0 2 -4 4 -10 4 -5 0 -10
-5 -10 -11z"/>
<path d="M1759 1883 c-13 -16 -12 -17 4 -4 9 7 17 15 17 17 0 8 -8 3 -21 -13z"/>
<path d="M4120 1896 c0 -2 8 -10 18 -17 15 -13 16 -12 3 4 -13 16 -21 21 -21
13z"/>
<path d="M4155 1890 c3 -5 8 -10 11 -10 2 0 4 5 4 10 0 6 -5 10 -11 10 -5 0
-7 -4 -4 -10z"/>
<path d="M4233 1885 c0 -8 4 -12 9 -9 5 3 6 10 3 15 -9 13 -12 11 -12 -6z"/>
<path d="M1690 1870 c0 -5 5 -10 11 -10 5 0 7 5 4 10 -3 6 -8 10 -11 10 -2 0
-4 -4 -4 -10z"/>
<path d="M4155 1851 c-3 -5 -2 -12 3 -15 5 -3 9 1 9 9 0 17 -3 19 -12 6z"/>
<path d="M4079 1848 c-6 -20 -6 -39 0 -42 4 -3 7 6 7 20 0 20 -4 32 -7 22z"/>
<path d="M1620 1836 c0 -2 8 -10 18 -17 15 -13 16 -12 3 4 -13 16 -21 21 -21
13z"/>
<path d="M1690 1829 c0 -5 5 -7 10 -4 6 3 10 8 10 11 0 2 -4 4 -10 4 -5 0 -10
-5 -10 -11z"/>
<path d="M1656 1803 c-6 -14 -5 -15 5 -6 7 7 10 15 7 18 -3 3 -9 -2 -12 -12z"/>
<path d="M1715 1801 c-3 -5 -2 -12 3 -15 5 -3 9 1 9 9 0 17 -3 19 -12 6z"/>
<path d="M4174 1792 c4 -3 14 -7 22 -8 9 -1 13 0 10 4 -4 3 -14 7 -22 8 -9 1
-13 0 -10 -4z"/>
<path d="M4089 1773 c-13 -16 -12 -17 4 -4 9 7 17 15 17 17 0 8 -8 3 -21 -13z"/>
<path d="M1513 1736 c0 -15 22 -15 34 0 4 5 4 6 -1 2 -5 -4 -14 -3 -21 2 -8 7
-12 5 -12 -4z"/>
<path d="M1535 1701 c-3 -5 -2 -12 3 -15 5 -3 9 1 9 9 0 17 -3 19 -12 6z"/>
<path d="M4113 1685 c0 -8 4 -12 9 -9 5 3 6 10 3 15 -9 13 -12 11 -12 -6z"/>
<path d="M4030 1665 c5 -6 8 -22 5 -35 -2 -12 -1 -20 3 -16 13 13 10 63 -4 63
-9 0 -11 -4 -4 -12z"/>
<path d="M4115 1630 c-3 -5 -1 -10 4 -10 6 0 11 5 11 10 0 6 -2 10 -4 10 -3 0
-8 -4 -11 -10z"/>
<path d="M1513 1615 c0 -8 4 -12 9 -9 5 3 6 10 3 15 -9 13 -12 11 -12 -6z"/>
<path d="M1446 1608 c3 -5 10 -6 15 -3 13 9 11 12 -6 12 -8 0 -12 -4 -9 -9z"/>
<path d="M3945 1589 c-3 -4 2 -6 10 -5 21 3 28 13 10 13 -9 0 -18 -4 -20 -8z"/>
<path d="M3993 1525 c0 -8 4 -12 9 -9 5 3 6 10 3 15 -9 13 -12 11 -12 -6z"/>
<path d="M4075 1530 c3 -5 8 -10 11 -10 2 0 4 5 4 10 0 6 -5 10 -11 10 -5 0
-7 -4 -4 -10z"/>
<path d="M3875 1511 c-3 -5 0 -13 6 -17 7 -4 9 -3 5 4 -3 5 0 13 6 15 9 4 10
6 1 6 -6 1 -14 -3 -18 -8z"/>
<path d="M4033 1505 c0 -8 4 -12 9 -9 5 3 6 10 3 15 -9 13 -12 11 -12 -6z"/>
<path d="M3840 1496 c0 -2 8 -10 18 -17 15 -13 16 -12 3 4 -13 16 -21 21 -21
13z"/>
<path d="M3899 1483 c-13 -17 -13 -17 6 -3 11 8 22 16 24 17 2 2 0 3 -6 3 -6
0 -17 -8 -24 -17z"/>
<path d="M3785 1450 c-2 -3 7 -6 21 -6 13 0 24 3 24 7 0 9 -40 8 -45 -1z"/>
<path d="M3881 1446 c-8 -10 -9 -16 -1 -21 6 -4 9 -1 8 7 -2 7 3 12 10 10 8
-1 11 2 7 8 -8 13 -10 13 -24 -4z"/>
<path d="M3750 1440 c-9 -6 -10 -10 -3 -10 6 0 15 5 18 10 8 12 4 12 -15 0z"/>
<path d="M3739 1403 c-13 -16 -12 -17 4 -4 16 13 21 21 13 21 -2 0 -10 -8 -17
-17z"/>
<path d="M3679 1383 c-13 -16 -12 -17 4 -4 9 7 17 15 17 17 0 8 -8 3 -21 -13z"/>
<path d="M3867 1389 c7 -7 15 -10 18 -7 3 3 -2 9 -12 12 -14 6 -15 5 -6 -5z"/>
<path d="M3315 1370 c3 -5 8 -10 11 -10 2 0 4 5 4 10 0 6 -5 10 -11 10 -5 0
-7 -4 -4 -10z"/>
<path d="M3626 1368 c3 -5 10 -6 15 -3 13 9 11 12 -6 12 -8 0 -12 -4 -9 -9z"/>
<path d="M3766 1368 c3 -5 10 -6 15 -3 13 9 11 12 -6 12 -8 0 -12 -4 -9 -9z"/>
<path d="M3455 1350 c3 -5 8 -10 11 -10 2 0 4 5 4 10 0 6 -5 10 -11 10 -5 0
-7 -4 -4 -10z"/>
<path d="M3666 1348 c3 -5 10 -6 15 -3 13 9 11 12 -6 12 -8 0 -12 -4 -9 -9z"/>
<path d="M3835 1349 c-3 -4 2 -6 10 -5 21 3 28 13 10 13 -9 0 -18 -4 -20 -8z"/>
<path d="M3380 1330 c8 -5 20 -10 25 -10 6 0 3 5 -5 10 -8 5 -19 10 -25 10 -5
0 -3 -5 5 -10z"/>
<path d="M3615 1330 c3 -5 8 -10 11 -10 2 0 4 5 4 10 0 6 -5 10 -11 10 -5 0
-7 -4 -4 -10z"/>
<path d="M3470 1315 c0 -7 30 -13 34 -7 3 4 -4 9 -15 9 -10 1 -19 0 -19 -2z"/>
<path d="M3695 1310 c-3 -5 -1 -10 4 -10 6 0 11 5 11 10 0 6 -2 10 -4 10 -3 0
-8 -4 -11 -10z"/>
<path d="M2390 1268 c-132 -20 -244 -120 -280 -251 -26 -97 9 -258 68 -311 12
-10 19 -24 15 -30 -3 -6 -3 -8 2 -4 11 11 36 -12 28 -25 -3 -5 -1 -7 5 -3 6 3
17 -1 25 -9 9 -8 23 -15 31 -15 9 0 16 -4 16 -8 0 -5 6 -9 13 -10 6 0 32 -6
57 -12 27 -7 71 -9 110 -5 36 3 73 7 83 8 9 1 17 5 17 10 0 5 7 4 15 -3 13
-11 15 -10 11 1 -7 18 61 63 68 46 3 -7 5 -6 5 3 1 19 50 76 63 72 5 -1 7 2 4
7 -9 14 5 42 16 35 6 -4 8 -1 6 7 -3 8 0 23 5 34 12 21 13 27 15 63 1 13 6 21
11 17 5 -3 13 0 17 6 4 8 3 9 -5 5 -17 -11 -25 22 -10 41 10 12 10 15 2 9 -9
-5 -13 0 -13 16 0 13 -7 44 -14 70 -8 25 -11 50 -8 54 4 4 2 4 -5 0 -7 -4 -14
3 -19 16 -10 32 -92 110 -139 133 -60 28 -151 42 -215 33z"/>
<path d="M2870 826 c0 -2 8 -10 18 -17 15 -13 16 -12 3 4 -13 16 -21 21 -21
13z"/>
<path d="M2786 768 c3 -5 10 -6 15 -3 13 9 11 12 -6 12 -8 0 -12 -4 -9 -9z"/>
<path d="M2850 749 c0 -5 5 -7 10 -4 6 3 10 8 10 11 0 2 -4 4 -10 4 -5 0 -10
-5 -10 -11z"/>
<path d="M2765 730 c-3 -6 1 -7 9 -4 18 7 21 14 7 14 -6 0 -13 -4 -16 -10z"/>
<path d="M2733 697 c0 -7 9 -14 20 -14 11 -1 18 -1 16 0 -2 2 -11 8 -20 15
-12 9 -16 9 -16 -1z"/>
<path d="M2695 659 c-4 -6 -5 -12 -2 -15 2 -3 7 2 10 11 7 17 1 20 -8 4z"/>
<path d="M2856 652 c-3 -5 1 -9 9 -9 8 0 12 4 9 9 -3 4 -7 8 -9 8 -2 0 -6 -4
-9 -8z"/>
<path d="M2745 630 c-3 -6 1 -7 9 -4 18 7 21 14 7 14 -6 0 -13 -4 -16 -10z"/>
<path d="M2690 626 c0 -2 8 -10 18 -17 15 -13 16 -12 3 4 -13 16 -21 21 -21
13z"/>
<path d="M2628 589 c6 -9 9 -18 6 -22 -3 -3 1 -4 10 -3 8 1 18 5 21 9 3 4 2 5
-2 2 -3 -3 -16 3 -27 12 -15 14 -18 14 -8 2z"/>
<path d="M2679 563 c-13 -16 -12 -17 4 -4 16 13 21 21 13 21 -2 0 -10 -8 -17
-17z"/>
<path d="M2796 568 c3 -5 10 -6 15 -3 13 9 11 12 -6 12 -8 0 -12 -4 -9 -9z"/>
<path d="M2550 526 c7 -7 13 -7 20 0 6 6 3 10 -10 10 -13 0 -16 -4 -10 -10z"/>
</g>
</svg>
