<svg xmlns="http://www.w3.org/2000/svg" width="256" height="256" viewBox="0 0 67.733 67.733"><path d="M26.656 3.555c1.706-1.707 4.635-1.707 6.342 0 1.72 1.72 1.744 4.631.018 6.359-1.727 1.727-4.639 1.702-6.358-.019-1.707-1.706-1.707-4.635 0-6.342zm-12.7 14.43c1.225-1.226 3.39-1.255 4.629-.019 1.262 1.263 1.262 3.384 0 4.646-1.239 1.239-3.404 1.209-4.63-.018-1.2-1.2-1.2-3.412 0-4.612zM.865 32.025c.929-.93 2.732-.93 3.662 0 .969.969 1.004 2.692.018 3.68-.987.987-2.71.951-3.68-.02-.929-.929-.929-2.732 0-3.662zM38.05 14.95c2.922-2.923 7.76-2.923 10.682 0 1.424 1.424 2.138 3.293 2.17 5.222-.014 1.093.587 2.046 1.273 2.595a3.35 3.35 0 0 0 2.916.644c3.36-.64 6.788.344 9.377 2.933 4.126 4.127 4.126 10.898 0 15.024-2.582 2.582-6.153 3.54-9.513 2.9-1.31-.309-2.229.236-2.78.678-.711.568-1.3 1.585-1.29 2.679-.032 1.928-.722 3.707-2.153 5.138-2.922 2.922-7.76 2.922-10.682 0-2.923-2.923-2.923-7.76 0-10.683 1.424-1.424 3.294-2.138 5.222-2.17 1.094.014 2.046-.587 2.595-1.272a3.35 3.35 0 0 0 .644-2.917c-.257-1.348-.225-2.509.032-3.866.309-1.31-.237-2.229-.678-2.78-.569-.712-1.585-1.3-2.679-1.29-1.929-.032-3.708-.722-5.138-2.153-2.922-2.922-2.922-7.76 0-10.682zM26.656 30.685c1.706-1.706 4.635-1.706 6.342 0 1.72 1.72 1.744 4.632.018 6.359-1.727 1.727-4.639 1.703-6.358-.019-1.707-1.706-1.707-4.635 0-6.341zm-12.7 14.43c1.225-1.225 3.39-1.255 4.629-.018 1.262 1.262 1.262 3.383 0 4.646-1.239 1.238-3.404 1.208-4.63-.019-1.2-1.2-1.2-3.411 0-4.612zm12.7 12.7c1.706-1.706 4.635-1.706 6.342 0 1.72 1.72 1.744 4.632.018 6.36-1.727 1.727-4.639 1.702-6.358-.02-1.707-1.706-1.707-4.635 0-6.341z" fill="#fff" fill-opacity=".129"/></svg>