<svg id="luxcore-logo" xmlns="http://www.w3.org/2000/svg" width="245.628" height="53.594" viewBox="0 0 64.989 14.18"><g fill="#1a1a1a" font-weight="400" font-family="Neuropolitical" text-anchor="middle" white-space="normal"><path id="luxcore-logo-title" style="line-height:1000%;-inkscape-font-specification:Neuropolitical;font-variant-ligatures:normal;font-variant-position:normal;font-variant-caps:normal;font-variant-numeric:normal;font-variant-alternates:normal;font-feature-settings:normal;text-indent:0;text-align:center;text-decoration-line:none;text-decoration-style:solid;text-decoration-color:#000;text-transform:none;text-orientation:mixed;shape-padding:0" d="M63.01 7.293V5.037c.119-.118.326-.22.567-.283.236-.06.423-.075.645-.08.195-.004.328.001.46.005l.042.599a3.557 3.557 0 0 0-.318-.017c-.12 0-.316.018-.437.05a.702.702 0 0 0-.24.112v1.87zM53.532 5.317a.346.346 0 0 1 .179.087.295.295 0 0 1 .092.164c.02.068.029.157.029.266v1.459h.72V5.81c0-.21-.021-.386-.063-.531a.695.695 0 0 0-.203-.348.842.842 0 0 0-.387-.193 2.47 2.47 0 0 0-.608-.063h-.302c-.222 0-.885-.008-1.3.103-.241.064-.456.176-.528.26v2.255h.72V5.418c.063-.042.186-.064.299-.077a5.04 5.04 0 0 1 .633-.04c.376 0 .667.005.72.016zM18.7 7.293q-.361 0-.603-.058-.241-.063-.386-.193-.145-.136-.208-.348-.058-.217-.058-.531V3.999h.73v2.135q0 .145.023.246.03.097.097.164.068.063.179.092.116.029.29.029h1.956v.628zM27.386 7.293l-.844-.947-.858.947h-.933l1.371-1.362-1.279-1.256h.919l.81.884.828-.884h.924L27 5.955l1.337 1.338zM29.97 7.293q-.363 0-.605-.058-.241-.063-.386-.193-.145-.136-.208-.348-.058-.217-.058-.531V5.129q0-.31.058-.527.063-.217.208-.347.145-.136.386-.193.242-.063.604-.063h2.285v.632h-2.251q-.169 0-.28.03-.106.024-.17.086-.062.063-.086.17-.024.1-.024.25v.967q0 .154.024.256.024.101.087.164t.174.087q.11.024.28.024h2.246v.628zM33.973 7.293q-.362 0-.604-.058-.241-.063-.386-.193-.145-.136-.208-.348-.058-.217-.058-.531V5.81q0-.314.058-.531.063-.218.208-.348.145-.135.386-.193.242-.063.604-.063h.874q.367 0 .609.063.241.058.386.193.145.135.203.353.063.217.063.53v.349q0 .314-.063.531-.058.212-.203.348-.145.13-.386.193-.242.058-.609.058zm1.415-1.459q0-.164-.029-.27-.024-.107-.096-.165-.068-.062-.194-.082-.125-.024-.318-.024h-.681q-.194 0-.32.024-.12.02-.192.082-.068.058-.097.165-.024.106-.024.27v.31q0 .164.024.27.029.101.097.164.072.058.193.082.125.024.319.024h.68q.194 0 .32-.024.125-.024.193-.082.072-.063.096-.164.03-.106.03-.27zM36.677 7.293V5.037c.12-.118.326-.22.567-.283.236-.06.423-.075.645-.08.196-.004.33.001.46.005l.043.599a3.557 3.557 0 0 0-.319-.017c-.119 0-.316.018-.437.05a.702.702 0 0 0-.24.112v1.87zM39.495 6.23v.14c0 .08.006.145.019.194a.232.232 0 0 0 .068.115c.035.026.08.044.135.054.058.01.129.014.212.014h1.58l-.207.546H39.93c-.415 0-.711-.079-.888-.237-.178-.158-.266-.41-.266-.758v-.604c0-.19.018-.35.053-.478a.637.637 0 0 1 .193-.314.848.848 0 0 1 .367-.174c.152-.035.343-.053.575-.053h1.266a1.7 1.7 0 0 1 .463.053.724.724 0 0 1 .295.15.48.48 0 0 1 .155.227.896.896 0 0 1 .043.285v.84zm1.97-.782c0-.087-.022-.145-.067-.174-.042-.03-.118-.044-.227-.044h-1.198c-.09 0-.166.005-.227.015a.297.297 0 0 0-.15.053.247.247 0 0 0-.077.126.816.816 0 0 0-.024.222v.13h1.97zM42.828 3.999v3.294h.73V6.177h1.84c.225 0 .42-.014.584-.043.165-.03.3-.08.406-.15a.655.655 0 0 0 .242-.295c.051-.125.077-.283.077-.473v-.227c0-.196-.024-.36-.073-.488a.63.63 0 0 0-.231-.304.968.968 0 0 0-.401-.155A3.48 3.48 0 0 0 45.408 4zm.73.618h1.801c.12 0 .22.005.3.014.08.01.143.03.188.058.045.03.077.071.097.126.019.055.029.126.029.213v.178c0 .09-.01.163-.03.218a.232.232 0 0 1-.1.125.449.449 0 0 1-.19.058c-.076.01-.175.015-.294.015h-1.801zm1.919 1.307l-.698.158 1.053 1.21h.918zM57.8 5.847V6.55c-.064.041-.187.064-.3.077a5.04 5.04 0 0 1-.633.04s-.665.01-.748-.002a.407.407 0 0 1-.194-.077.306.306 0 0 1-.101-.165 1.308 1.308 0 0 1-.024-.28v-.309c0-.116.008-.21.024-.28a.306.306 0 0 1 .101-.164.407.407 0 0 1 .194-.077 2.12 2.12 0 0 1 .314-.02h1.047c.106 0 .32.028.32.028zm.72.015V3.83h-.72v.88s-.207-.035-.466-.035h-.988c-.245 0-.45.02-.614.063a.842.842 0 0 0-.386.193.726.726 0 0 0-.208.348 2.092 2.092 0 0 0-.058.531v.353c0 .209.02.386.058.531a.758.758 0 0 0 .208.348.91.91 0 0 0 .386.193c.164.039.369.058.614.058h.345c.222 0 .885.008 1.3-.103.24-.064.456-.176.528-.26V6.18zM47.946 6.23v.14c0 .08.007.145.02.194a.232.232 0 0 0 .067.115c.036.026.08.044.135.054.058.01.13.014.213.014h1.58l-.207.546h-1.373c-.415 0-.712-.079-.889-.237-.177-.158-.265-.41-.265-.758v-.604c0-.19.017-.35.053-.478a.637.637 0 0 1 .193-.314.848.848 0 0 1 .367-.174c.151-.035.343-.053.575-.053h1.265a1.7 1.7 0 0 1 .464.053.724.724 0 0 1 .295.15.48.48 0 0 1 .154.227.896.896 0 0 1 .044.285v.84zm1.971-.782c0-.087-.023-.145-.068-.174-.042-.03-.117-.044-.227-.044h-1.198c-.09 0-.165.005-.227.015a.297.297 0 0 0-.15.053.247.247 0 0 0-.077.126.816.816 0 0 0-.024.222v.13h1.971zM59.799 6.23v.14c0 .08.006.145.02.194a.232.232 0 0 0 .067.115c.035.026.08.044.135.054.058.01.129.014.213.014h1.58l-.207.546h-1.373c-.416 0-.712-.079-.889-.237-.177-.158-.266-.41-.266-.758v-.604c0-.19.018-.35.053-.478a.637.637 0 0 1 .194-.314.848.848 0 0 1 .367-.174c.151-.035.343-.053.575-.053h1.265a1.7 1.7 0 0 1 .464.053.724.724 0 0 1 .294.15.48.48 0 0 1 .155.227.896.896 0 0 1 .043.285v.84zm1.97-.782c0-.087-.022-.145-.067-.174-.042-.03-.117-.044-.227-.044h-1.198c-.09 0-.166.005-.227.015a.297.297 0 0 0-.15.053.247.247 0 0 0-.077.126.816.816 0 0 0-.024.222v.13h1.97zM22.106 6.65a.346.346 0 0 1-.18-.086.295.295 0 0 1-.091-.165.996.996 0 0 1-.029-.265v-1.46h-.72v1.484c0 .21.021.386.063.531.039.145.106.261.203.348.097.09.226.154.387.193.16.042.363.063.608.063h.302c.222 0 .885.008 1.3-.103.24-.064.455-.176.528-.26V4.675h-.72V6.55c-.063.041-.186.064-.3.077a5.04 5.04 0 0 1-.632.04c-.376 0-.667-.005-.72-.016z"/></g><g aria-label="OPEN SOURCE PHYSICALLY BASED RENDERER" style="line-height:1000%;-inkscape-font-specification:'PT Sans';font-variant-ligatures:normal;font-variant-position:normal;font-variant-caps:normal;font-variant-numeric:normal;font-variant-alternates:normal;font-feature-settings:normal;text-indent:0;text-align:center;text-decoration-line:none;text-decoration-style:solid;text-decoration-color:#000;text-transform:none;text-orientation:mixed;shape-padding:0" font-weight="400" font-size="2.382" font-family="PT Sans" text-anchor="middle" white-space="normal" fill="#4d4d4d" stroke-width=".634"><path id="luxcore-logo-subtitle" d="M17.4 10.064q0-.416.176-.638.177-.224.503-.224.176 0 .305.062.128.062.212.176.085.112.126.272.04.157.04.352 0 .417-.178.641-.176.221-.505.221-.174 0-.303-.061-.126-.062-.212-.174-.083-.115-.123-.272-.04-.16-.04-.355zm.21 0q0 .138.026.262.028.124.086.22.057.092.145.15.09.054.212.054.221 0 .348-.166.126-.17.126-.52 0-.135-.029-.26-.026-.125-.086-.218-.057-.096-.147-.15-.088-.058-.212-.058-.22 0-.346.17-.123.166-.123.516zM19.097 9.247q.09-.021.196-.028.104-.007.207-.007.11 0 .221.021.115.022.207.079.093.057.15.157.06.1.06.255 0 .152-.055.257-.055.105-.145.172-.09.064-.207.092-.117.03-.24.03h-.098l-.058-.006q-.028-.002-.04-.005v.634h-.198zm.408.136q-.062 0-.12.002-.057.002-.09.012v.69q.012.006.038.008l.055.002h.093q.08 0 .16-.015.08-.016.145-.057.064-.04.102-.114.04-.074.04-.188 0-.098-.038-.162-.035-.067-.097-.105-.06-.04-.136-.057-.076-.017-.152-.017zM20.428 9.23h.907v.177h-.71v.545h.65v.177h-.65v.593h.722v.176h-.92zM22.002 9.807l-.128-.24h-.01l.024.24v1.09h-.186V9.206h.105l.798 1.112.124.228h.012l-.027-.228V9.23h.186v1.693h-.105zM24.697 10.474q0-.1-.06-.162-.06-.064-.15-.112-.088-.05-.193-.093-.104-.043-.195-.102-.088-.062-.147-.15-.06-.09-.06-.229 0-.195.136-.31.135-.114.386-.114.145 0 .264.022.119.021.186.054l-.06.174q-.055-.026-.162-.05-.105-.024-.238-.024-.157 0-.236.072-.078.069-.078.164 0 .093.06.155.059.062.147.112.09.048.195.095.105.048.193.112.09.062.15.15t.06.22q0 .106-.038.192-.039.086-.112.148-.074.062-.179.095t-.238.033q-.179 0-.296-.028-.116-.026-.18-.06l.066-.178q.055.03.162.062.107.028.24.028.08 0 .148-.014.07-.017.12-.05.05-.036.078-.088.031-.053.031-.124zM25.14 10.064q0-.416.177-.638.176-.224.502-.224.177 0 .305.062.129.062.212.176.086.112.126.272.04.157.04.352 0 .417-.178.641-.176.221-.505.221-.173 0-.302-.061-.126-.062-.212-.174-.083-.115-.124-.272-.04-.16-.04-.355zm.21 0q0 .138.026.262.029.124.086.22.057.092.145.15.09.054.212.054.222 0 .348-.166.126-.17.126-.52 0-.135-.028-.26-.026-.125-.086-.218-.057-.096-.148-.15-.088-.058-.212-.058-.219 0-.345.17-.124.166-.124.516zM27.795 9.23h.19v1.113q0 .15-.04.26-.038.11-.112.18-.071.07-.174.103-.102.033-.226.033-.295 0-.445-.133-.15-.133-.15-.405v-1.15h.197v1.057q0 .126.024.215.026.085.076.14.05.052.124.076.077.024.177.024.192 0 .276-.105.083-.107.083-.35zM28.391 9.247q.091-.016.208-.026.119-.01.216-.01.11 0 .208.024.1.024.173.079.077.054.122.143.045.088.045.214 0 .195-.107.317-.107.121-.272.162l.115.088.414.66h-.23l-.46-.72-.234-.036v.755h-.198zm.43.136h-.065q-.033 0-.064.002l-.06.005q-.026.002-.043.007v.615h.186q.164 0 .271-.081.108-.081.108-.253 0-.128-.089-.212-.088-.083-.245-.083zM30.77 10.829q-.071.055-.18.076-.11.021-.234.021-.15 0-.281-.05-.131-.052-.229-.157-.097-.105-.155-.266-.057-.165-.057-.389 0-.233.062-.395.064-.164.167-.267.105-.105.233-.152.129-.048.262-.048.143 0 .234.017.09.014.154.04l-.047.174q-.115-.055-.326-.055-.098 0-.193.036-.096.036-.172.117-.074.08-.119.212-.045.13-.045.321 0 .172.043.3.043.13.116.215.077.086.177.128.102.043.221.043.107 0 .186-.021.08-.021.136-.055zM31.062 9.23h.907v.177h-.71v.545h.65v.177h-.65v.593h.722v.176h-.92zM32.973 9.247q.09-.021.196-.028.105-.007.207-.007.11 0 .221.021.115.022.208.079.093.057.15.157.06.1.06.255 0 .152-.056.257-.054.105-.145.172-.09.064-.207.092-.117.03-.24.03h-.098l-.057-.006q-.029-.002-.04-.005v.634h-.199zm.408.136q-.062 0-.12.002-.057.002-.09.012v.69q.012.006.038.008l.055.002h.093q.08 0 .16-.015.08-.016.145-.057.064-.04.102-.114.04-.074.04-.188 0-.098-.037-.162-.036-.067-.098-.105-.06-.04-.136-.057-.076-.017-.152-.017zM35.302 10.133h-.8v.765h-.198V9.23h.198v.726h.8v-.726h.197v1.667h-.197zM36.27 10.236l-.55-1.005h.232l.39.729.04.145h.003l.043-.15.374-.724h.212l-.545 1.002v.665h-.198zM37.987 10.474q0-.1-.06-.162-.059-.064-.15-.112-.088-.05-.192-.093-.105-.043-.196-.102-.088-.062-.147-.15-.06-.09-.06-.229 0-.195.136-.31.136-.114.386-.114.145 0 .264.022.12.021.186.054l-.06.174q-.055-.026-.162-.05-.105-.024-.238-.024-.157 0-.236.072-.078.069-.078.164 0 .093.06.155.059.062.147.112.09.048.195.095.105.048.193.112.09.062.15.15t.06.22q0 .106-.038.192-.038.086-.112.148-.074.062-.179.095t-.238.033q-.179 0-.295-.028-.117-.026-.181-.06l.066-.178q.055.03.162.062.107.028.24.028.08 0 .148-.014.07-.017.12-.05.05-.036.078-.088.031-.053.031-.124zM38.545 9.23h.198v1.668h-.198zM40.26 10.829q-.072.055-.181.076-.11.021-.234.021-.15 0-.28-.05-.132-.052-.23-.157-.097-.105-.154-.266-.057-.165-.057-.389 0-.233.062-.395.064-.164.166-.267.105-.105.234-.152.128-.048.262-.048.143 0 .233.017.09.014.155.04l-.048.174q-.114-.055-.326-.055-.098 0-.193.036t-.171.117q-.074.08-.12.212-.045.13-.045.321 0 .172.043.3.043.13.117.215.076.086.176.128.103.043.222.043.107 0 .185-.021.081-.021.136-.055zM41.28 10.436h-.615l-.167.462h-.195l.63-1.693h.091l.634 1.693h-.207zm-.551-.172h.49l-.185-.507-.06-.252h-.002l-.06.257zM42.868 10.898h-.986V9.23h.197v1.49h.789zM44.1 10.898h-.986V9.23h.198v1.49h.788zM44.463 10.236l-.55-1.005h.23l.391.729.04.145h.003l.043-.15.374-.724h.212l-.546 1.002v.665h-.197zM47.008 9.612q0 .06-.019.121-.019.062-.057.117-.038.052-.098.093-.06.04-.14.062v.01q.071.012.135.04.067.029.117.079t.081.121q.031.072.031.17 0 .128-.055.223-.052.093-.14.153-.086.06-.198.088-.112.028-.229.028h-.095q-.055 0-.114-.005-.06-.002-.12-.01-.059-.005-.104-.016V9.245q.088-.015.205-.024.117-.01.255-.01.093 0 .188.017.097.014.176.06.079.042.129.12.052.08.052.203zm-.552 1.134q.076 0 .147-.017.072-.02.126-.057.055-.04.086-.098.034-.057.034-.136 0-.097-.041-.157-.038-.06-.102-.093-.062-.033-.14-.045-.08-.012-.158-.012H46.2v.598q.016.005.047.007l.067.005.074.005h.067zm-.131-.782l.097-.002q.057-.002.095-.007.058-.019.108-.045.05-.028.088-.064.04-.038.062-.086.023-.05.023-.107 0-.079-.03-.129-.029-.052-.08-.083-.05-.031-.113-.043-.065-.014-.131-.014-.079 0-.146.005-.064.002-.097.01v.567zM48.187 10.436h-.614l-.167.462h-.196l.632-1.693h.09l.634 1.693h-.208zm-.55-.172h.49l-.185-.507-.06-.252h-.002l-.06.257zM49.542 10.474q0-.1-.06-.162-.06-.064-.15-.112-.088-.05-.192-.093-.105-.043-.196-.102-.088-.062-.147-.15-.06-.09-.06-.229 0-.195.136-.31.136-.114.386-.114.145 0 .264.022.12.021.186.054l-.06.174q-.055-.026-.162-.05-.105-.024-.238-.024-.157 0-.236.072-.078.069-.078.164 0 .093.06.155.059.062.147.112.09.048.195.095.105.048.193.112.09.062.15.15t.06.22q0 .106-.038.192-.039.086-.112.148-.074.062-.179.095t-.238.033q-.179 0-.295-.028-.117-.026-.181-.06l.066-.178q.055.03.162.062.107.028.24.028.08 0 .148-.014.07-.017.12-.05.05-.036.078-.088.031-.053.031-.124zM50.055 9.23h.907v.177h-.71v.545h.65v.177h-.65v.593h.722v.176h-.92zM51.33 9.23q.045-.006.1-.01.056-.004.116-.004l.12-.002.109-.002q.2 0 .345.062.148.062.243.174.095.11.14.264.048.155.048.34 0 .17-.045.327-.043.155-.138.276-.096.12-.248.193-.152.071-.37.071l-.1-.002q-.059 0-.123-.005l-.12-.005q-.054-.002-.078-.007zm.45.158h-.07l-.071.002-.067.005q-.028.002-.045.005v1.334l.045.005.07.002q.035 0 .068.002h.046q.166 0 .278-.057.115-.058.181-.153.07-.098.098-.221.028-.127.028-.26 0-.117-.026-.233-.026-.12-.09-.215-.065-.095-.174-.155-.107-.061-.272-.061zM53.525 9.247q.09-.016.207-.026.12-.01.217-.01.11 0 .207.024.1.024.174.079.076.054.121.143.046.088.046.214 0 .195-.108.317-.107.121-.271.162l.114.088.415.66h-.231l-.46-.72-.233-.036v.755h-.198zm.429.136h-.065q-.033 0-.064.002l-.06.005q-.026.002-.042.007v.615h.185q.165 0 .272-.081.107-.081.107-.253 0-.128-.088-.212-.088-.083-.245-.083zM54.944 9.23h.907v.177h-.71v.545h.65v.177h-.65v.593h.722v.176h-.92zM56.518 9.807l-.128-.24h-.01l.024.24v1.09h-.186V9.206h.105l.798 1.112.124.228h.012l-.026-.228V9.23h.185v1.693h-.105zM57.823 9.23q.045-.006.1-.01.057-.004.117-.004l.119-.002.11-.002q.2 0 .345.062.148.062.243.174.095.11.14.264.048.155.048.34 0 .17-.045.327-.043.155-.139.276-.095.12-.247.193-.153.071-.37.071l-.1-.002q-.059 0-.123-.005l-.12-.005q-.054-.002-.078-.007zm.45.158h-.069q-.036 0-.071.002l-.067.005q-.029.002-.045.005v1.334l.045.005.07.002q.035 0 .068.002h.045q.167 0 .279-.057.114-.058.181-.153.07-.098.098-.221.028-.127.028-.26 0-.117-.026-.233-.026-.12-.09-.215-.065-.095-.174-.155-.107-.061-.272-.061zM59.381 9.23h.908v.177h-.71v.545h.65v.177h-.65v.593h.722v.176h-.92zM60.656 9.247q.09-.016.207-.026.12-.01.217-.01.11 0 .207.024.1.024.174.079.076.054.122.143.045.088.045.214 0 .195-.107.317-.108.121-.272.162l.114.088.415.66h-.231l-.46-.72-.233-.036v.755h-.198zm.429.136h-.065q-.033 0-.064.002l-.06.005q-.026.002-.042.007v.615h.185q.165 0 .272-.081.107-.081.107-.253 0-.128-.088-.212-.088-.083-.245-.083zM62.075 9.23h.907v.177h-.71v.545h.65v.177h-.65v.593h.722v.176h-.92zM63.35 9.247q.09-.016.207-.026.119-.01.216-.01.11 0 .208.024.1.024.173.079.077.054.122.143.045.088.045.214 0 .195-.107.317-.107.121-.271.162l.114.088.414.66h-.23l-.46-.72-.234-.036v.755h-.198zm.428.136h-.064q-.033 0-.064.002l-.06.005q-.026.002-.043.007v.615h.186q.164 0 .271-.081.108-.081.108-.253 0-.128-.089-.212-.088-.083-.245-.083z" style="-inkscape-font-specification:'PT Sans'"/></g><path id="luxcore-logo-graphics" d="M5.987.541a.987.987 0 0 1 1.37 0c.372.372.377 1 .004 1.374a.984.984 0 0 1-1.374-.004.987.987 0 0 1 0-1.37zM3.243 3.66a.727.727 0 0 1 1-.004.718.718 0 0 1 0 1.004.726.726 0 0 1-1-.004.735.735 0 0 1 0-.997zM.415 6.692c.201-.2.59-.2.791 0 .21.21.217.582.004.795a.577.577 0 0 1-.795-.004c-.2-.2-.2-.59 0-.791zM8.45 3.003a1.643 1.643 0 0 1 2.308 0c.308.308.462.712.47 1.128a.728.728 0 0 0 .274.56.724.724 0 0 0 .63.14 2.232 2.232 0 0 1 2.026.634 2.304 2.304 0 0 1 0 3.246 2.286 2.286 0 0 1-2.055.626.674.674 0 0 0-.601.147.76.76 0 0 0-.279.579 1.568 1.568 0 0 1-.465 1.11 1.643 1.643 0 0 1-2.308 0 1.643 1.643 0 0 1 0-2.308 1.618 1.618 0 0 1 1.129-.47.726.726 0 0 0 .56-.274.724.724 0 0 0 .14-.63 2.109 2.109 0 0 1 .007-.836.674.674 0 0 0-.147-.6.76.76 0 0 0-.579-.279 1.568 1.568 0 0 1-1.11-.465 1.643 1.643 0 0 1 0-2.308zm-2.462 3.4a.987.987 0 0 1 1.37 0c.372.371.377 1 .004 1.374a.984.984 0 0 1-1.374-.004.987.987 0 0 1 0-1.37zM3.243 9.52a.727.727 0 0 1 1-.004.718.718 0 0 1 0 1.004.726.726 0 0 1-1-.004.735.735 0 0 1 0-.996zm2.744 2.744a.987.987 0 0 1 1.37 0c.372.372.377 1 .004 1.374a.984.984 0 0 1-1.374-.004.987.987 0 0 1 0-1.37z" fill="#fe890a"/></svg>