<svg xmlns="http://www.w3.org/2000/svg" viewBox="0 0 97.511 62.056" height="234.544" width="368.544"><path d="M29.641 30.62v11.432H18.21V30.62zm-11.75-1.113a.792.792 0 0 0-.795.793v12.07c0 .44.354.794.794.794h12.07c.44 0 .794-.354.794-.793V30.3a.792.792 0 0 0-.794-.794z" fill="#fe890a"/><path d="M18.977 31.388v9.896h9.897v-9.896z" fill="#4d4d4d"/><path d="M15.065 35.024h.992m-.992 2.646h.992m-.992 2.645h.992m-.992-7.937h.992M25.237 27.476v.992m-2.646-.992v.992m-2.646-.992v.992m7.938-.992v.992M32.785 37.647h-.992m.992-2.646h-.992m.992-2.645h-.992m.992 7.937h-.992M22.613 45.195v-.992m2.646.992v-.992m2.646.992v-.992m-7.937.992v-.992" fill="none" stroke="#4d4d4d" stroke-width="1.368" stroke-linecap="round"/><path d="M46.854 36.335h-7.056m3.528-3.528v7.057" fill="none" stroke="#4d4d4d" stroke-width="1.294" stroke-linecap="square"/><path d="M55.72 28.835h25.562a2.467 2.467 0 0 1 2.463 2.48v9.363a2.467 2.467 0 0 1-2.463 2.48H55.72z" fill="#4d4d4d"/><path d="M52.64 27.883h1.817V44.33" fill="none" stroke="#4d4d4d" stroke-width="1.237" stroke-linecap="square"/><path style="line-height:normal;font-variant-ligatures:normal;font-variant-position:normal;font-variant-caps:normal;font-variant-numeric:normal;font-variant-alternates:normal;font-feature-settings:normal;text-indent:0;text-align:start;text-decoration-line:none;text-decoration-style:solid;text-decoration-color:#000;text-transform:none;text-orientation:mixed;shape-padding:0;isolation:auto;mix-blend-mode:normal" d="M61.724 43.69v1.718h2.39v-1.719h-2.39zm4.313 0v1.718h10.395v-1.719H66.037z" color="#000" font-weight="400" font-family="sans-serif" white-space="normal" overflow="visible" fill="#4d4d4d"/><path d="M81.256 35.997a5.063 5.096 0 0 1-5.063 5.095 5.063 5.096 0 0 1-5.063-5.095 5.063 5.096 0 0 1 5.063-5.096 5.063 5.096 0 0 1 5.063 5.096zm-11.793 0a5.063 5.096 0 0 1-5.063 5.095 5.063 5.096 0 0 1-5.064-5.095A5.063 5.096 0 0 1 64.4 30.9a5.063 5.096 0 0 1 5.063 5.096z" fill="#fff"/><path d="M76.015 31.417a4.557 4.586 0 0 0-2.24.695c.379.266.882.684 1.411 1.318.19.229.321.407.42.56a2.079 2.092 0 0 1 .587-.085 2.079 2.092 0 0 1 .07.003c.012-.151.021-.322.021-.547 0-.95-.15-1.587-.27-1.944zm.78.039c.121.448.237 1.087.237 1.905 0 .301-.014.523-.037.706a2.079 2.092 0 0 1 .561.352c.105-.107.22-.23.36-.399.607-.728.899-1.315 1.036-1.666a4.557 4.586 0 0 0-2.156-.898zm-3.643 1.132a4.557 4.586 0 0 0-1.29 1.993 7.208 7.208 0 0 1 1.955.094c.278.049.485.099.655.15a2.079 2.092 0 0 1 .463-.492 6.255 6.255 0 0 0-.322-.42c-.614-.736-1.143-1.13-1.46-1.325zm6.378.292a7.29 7.29 0 0 1-1.04 1.623 5.82 5.82 0 0 1-.466.505 2.079 2.092 0 0 1 .218.64c.144-.015.3-.033.505-.07.948-.168 1.555-.437 1.88-.617a4.557 4.586 0 0 0-1.097-2.08zm-7.248 2.42c-.25.007-.448.029-.595.053a4.557 4.586 0 0 0-.05.644 4.557 4.586 0 0 0 .343 1.739 7.213 7.213 0 0 1 1.582-1.219c.228-.132.411-.226.566-.296a2.079 2.092 0 0 1-.014-.224 2.079 2.092 0 0 1 .057-.475 7.006 7.006 0 0 0-1.888-.222zm8.459.437a7.22 7.22 0 0 1-1.865.583 6 6 0 0 1-.644.084 2.079 2.092 0 0 1-.249.651 6.1 6.1 0 0 0 .402.256c.865.502 1.514.683 1.87.75a4.557 4.586 0 0 0 .495-2.064 4.557 4.586 0 0 0-.01-.26zm-6.397 1.215c-.122.06-.245.12-.409.215-.886.514-1.366 1-1.595 1.274a4.557 4.586 0 0 0 1.769 1.63c.03-.469.133-1.15.433-1.98a6.34 6.34 0 0 1 .233-.568 2.079 2.092 0 0 1-.431-.571zm3.148.678a2.079 2.092 0 0 1-.626.344c.037.129.074.256.137.43.352.974.745 1.535.974 1.807a4.557 4.586 0 0 0 1.867-1.48 7.212 7.212 0 0 1-1.832-.768 6.263 6.263 0 0 1-.52-.333zm-2.077.306c-.053.121-.106.24-.168.411-.357.987-.412 1.676-.41 2.028a4.557 4.586 0 0 0 1.356.208 4.557 4.586 0 0 0 1.036-.126 7.25 7.25 0 0 1-.929-1.796 6.385 6.385 0 0 1-.182-.575 2.079 2.092 0 0 1-.703-.15zM64.221 31.417a4.557 4.586 0 0 0-2.24.695c.38.266.883.684 1.412 1.318.19.229.32.407.42.56a2.079 2.092 0 0 1 .587-.085 2.079 2.092 0 0 1 .069.003c.013-.151.022-.322.022-.547 0-.95-.151-1.587-.27-1.944zm.782.04c.12.448.236 1.087.236 1.904 0 .301-.015.523-.037.706a2.079 2.092 0 0 1 .56.352c.106-.107.22-.23.361-.399.607-.728.899-1.314 1.036-1.665a4.557 4.586 0 0 0-2.156-.899zm-3.644 1.131a4.557 4.586 0 0 0-1.291 1.993 7.208 7.208 0 0 1 1.956.094c.278.049.485.099.655.15a2.079 2.092 0 0 1 .463-.492 6.252 6.252 0 0 0-.322-.42c-.614-.736-1.143-1.13-1.461-1.325zm6.378.292a7.29 7.29 0 0 1-1.04 1.623 5.82 5.82 0 0 1-.467.505 2.079 2.092 0 0 1 .219.64c.144-.015.299-.033.504-.07.949-.168 1.555-.437 1.88-.617a4.557 4.586 0 0 0-1.096-2.08zm-7.248 2.42c-.25.007-.448.029-.596.053a4.557 4.586 0 0 0-.05.644 4.557 4.586 0 0 0 .344 1.74 7.206 7.206 0 0 1 1.582-1.22c.227-.132.41-.226.566-.296a2.079 2.092 0 0 1-.014-.224 2.079 2.092 0 0 1 .056-.475 7.006 7.006 0 0 0-1.888-.222zm8.458.437a7.22 7.22 0 0 1-1.865.583 6.003 6.003 0 0 1-.644.084 2.079 2.092 0 0 1-.248.651c.114.078.233.158.402.256.865.503 1.514.684 1.871.75a4.557 4.586 0 0 0 .493-2.064 4.557 4.586 0 0 0-.009-.26zm-6.397 1.215c-.122.06-.244.12-.408.215-.886.514-1.367 1-1.595 1.274a4.557 4.586 0 0 0 1.768 1.63 7.245 7.245 0 0 1 .434-1.98c.085-.235.161-.418.233-.568a2.079 2.092 0 0 1-.432-.571zm3.148.678a2.079 2.092 0 0 1-.625.344c.037.129.073.256.136.43.352.974.746 1.535.974 1.807a4.557 4.586 0 0 0 1.868-1.48 7.211 7.211 0 0 1-1.832-.768 6.265 6.265 0 0 1-.52-.333zm-2.076.306c-.053.121-.106.24-.168.411-.357.987-.412 1.676-.41 2.028a4.557 4.586 0 0 0 1.356.208 4.557 4.586 0 0 0 1.037-.126 7.247 7.247 0 0 1-.93-1.796 6.382 6.382 0 0 1-.182-.575 2.079 2.092 0 0 1-.703-.15z" fill="#fe890a"/><path d="M77.712 35.997a1.519 1.529 0 0 1-1.52 1.528 1.519 1.529 0 0 1-1.518-1.528 1.519 1.529 0 0 1 1.519-1.53 1.519 1.529 0 0 1 1.519 1.53zM65.918 35.997a1.519 1.529 0 0 1-1.518 1.528 1.519 1.529 0 0 1-1.52-1.528 1.519 1.529 0 0 1 1.52-1.53 1.519 1.529 0 0 1 1.518 1.53z" fill="#4d4d4d"/></svg>