<svg xmlns="http://www.w3.org/2000/svg" viewBox="0 0 97.511 62.056" height="234.544" width="368.544"><path d="M61.477 39.05a29.827 29.827 0 0 0 3.243-1.777c.036-.024.073-.045.109-.068-.42 1.065-.214 2.934-.21 2.926.662-1.937 1.48-3.641 2.72-4.725.473.424.833 1.218 1.128 2.226.146-1.387-.104-2.161-.226-2.444.609.722 1.715 1.126 2.904 1.476-1.336-.81-2.22-1.611-2.567-2.396 3.811-1.173 7.939-2.576 12.272-4.13-.34-.257-.705-.289-1.085-.177-.782.284-5.926 2.137-12.924 4.253l-.6.181-.169.05c-.735.22-1.487.442-2.257.665l-.527.152-.01.003-1.926 3.846.125-.06z" fill="#4d4d4d"/><path d="M26.128 43.174c1.064.402 2.21.507 3.332.629.662.063 1.325.107 1.988.14l1.368-2.864c-1.757.048-3.52.01-5.267-.197 1.727.173 3.467.103 5.196.01-1.248-1.489-2.617-2.87-4.013-4.218-1.312.66-2.583 1.582-3.271 2.915-.352.811-.556 1.76-.27 2.621.154.44.506.79.936.964zM40.472 35.67c-.01-.008-.016-.016-.025-.024l.146.158.037.02-.158-.155z" fill="#fe890a"/><path d="M45.408 33.896zM45.751 34.222h-.002.002zM48.01 33.16c.141.131.284.269.431.41l.003.001a7.099 7.099 0 0 0-.434-.412z" fill="#4d4d4d"/><path d="M48.01 33.16c.141.131.284.269.431.41l.003.001a7.099 7.099 0 0 0-.434-.412zM45.746 34.22h.002c0 .001.002 0 .002.002-.022-.024-.045-.045-.067-.067a5.717 5.717 0 0 0-.274-.26c.11.108.223.215.337.325z" fill="#4d4d4d"/><path d="M45.746 34.22h.002c0 .001.002 0 .002.002-.022-.024-.045-.045-.067-.067a5.717 5.717 0 0 0-.274-.26c.11.108.223.215.337.325z" fill="#4d4d4d"/><path d="M41.242 40.282c-.946.14-1.881.264-2.802.371-.955.111-1.894.203-2.812.273l-.163.014a57 57 0 0 1-2.65.138l-1.367 2.863a66.62 66.62 0 0 0 2.707.069 82.909 82.909 0 0 0 5.379-.152c.78-.047 1.58-.103 2.39-.173l.09-.007c.743-1.237 1.277-2.55 1.915-3.826-.903.155-1.799.299-2.687.43z" fill="#fe890a"/><path d="M60.52 36.042a211.63 211.63 0 0 1-8.182 2.087c-.935.218-1.873.428-2.811.63a154.263 154.263 0 0 1-3.784.766c-.576.109-1.15.213-1.721.311l-.093.016-1.915 3.826.18-.016a85.25 85.25 0 0 0 8.02-1.085 56.414 56.414 0 0 0 2.7-.574 50.654 50.654 0 0 0 4.298-1.226c.426-.148.85-.301 1.267-.459.985-.37 1.944-.772 2.873-1.207.65-1.262 1.32-2.544 1.926-3.846a272.347 272.347 0 0 1-2.758.777zM44.01 39.418l.375-.07a129.195 129.195 0 0 0 2.448-.482c.223-.045.445-.092.672-.14a162.501 162.501 0 0 0 4.816-1.087 218.898 218.898 0 0 0 8.146-2.138l.128-.037c.882-.25 1.784-.511 2.705-.784l.063-.019-1.069-1.153c.014.028.03.056.043.084-1.3-1.363-3.9-2.526-6.242-2.79-1.079-.12-2.231-.102-3.482.052-.931.115-1.917.306-2.968.57-.919.232-1.887.518-2.912.861.438.21.864.506 1.28.873a9.339 9.339 0 0 1 .434.412l-.003-.002c-1.576-1.001-3.271-1.113-5.02-.81a6.207 6.207 0 0 1 1.986 1.136c.094.082.185.17.275.259.023.023.045.044.066.067l-.002-.001s0-.002-.002 0a7.092 7.092 0 0 0-1.627-.734 5.47 5.47 0 0 0-1.21-.21 6.072 6.072 0 0 0-1.095.032 18.503 18.503 0 0 0-1.77.366 12.364 12.364 0 0 0-1.226.386c-.208.08-.367.154-.478.212.073.02.15.046.232.08.567.235 1.333.79 1.874 1.295l-.98-1.059.98 1.06c.01.007.017.015.025.022l.16.156c-.013-.007-.025-.01-.037-.018l3.357 3.62c.02-.002.038-.006.059-.009z" fill="#4d4d4d"/><path d="M32.745 40.89a66.26 66.26 0 0 0 2.692-.22l.158-.017a88.652 88.652 0 0 0 2.817-.336c.877-.117 1.81-.255 2.803-.416.866-.14 1.78-.296 2.737-.473l-3.32-3.603c-1.38-.757-2.277-.937-3.338-.923-.29.009-.587.024-.892.044-.932.064-1.923.183-2.88.341-.922.153-1.809.342-2.579.553-.489.135-.93.279-1.301.426-.327.131-.629.268-.91.408 1.401 1.342 3.047 3.036 4.014 4.215z" fill="#fe890a"/><path d="M48.229 33.359zM48.229 33.359zM48.229 33.359zM45.751 34.222c-.022-.023-.045-.044-.066-.067.02.023.043.045.066.067z" fill="#4d4d4d"/><path d="M45.751 34.222c-.022-.023-.045-.044-.066-.067.02.023.043.045.066.067z" fill="#4d4d4d"/><path d="M45.751 34.222c-.022-.023-.045-.044-.066-.067.02.023.043.045.066.067zM45.748 34.22h-.002.002zM45.748 34.22h-.002.002zM45.748 34.22h-.002.002zM63.766 34.543a241.25 241.25 0 0 0 2.186-.662l.033-.01.314-.097c.5-.154.946-.297 1.963-.62-.131-.612.146-1.387.511-2.197a3.117 3.117 0 0 0-1.12 2.087c-1.57-2.33-3.58-3.85-5.973-3.633a5.18 5.18 0 0 0-.649.1c.917.027 1.583.41 2.313 1.52l.008.006-.008-.005c-1.865-1.048-3.123-1.336-4.755-1.203a14.71 14.71 0 0 0-1.238.16c2.426.328 4.006 1.62 4.943 3.52l.043.083 1.025 1.07c.135-.038.269-.078.404-.119z" fill="#4d4d4d"/></svg>