<svg xmlns="http://www.w3.org/2000/svg" viewBox="0 0 97.511 62.056" height="234.544" width="368.544"><path d="M54.429 21.714c-.87.015-1.738.123-2.588.323l.084 2.729a9.5 9.5 0 0 0-2.546 1.194l-2.047-1.828a12.176 12.176 0 0 0-2.458 2.453l1.83 2.05a9.506 9.506 0 0 0-1.188 2.547l-2.743-.085a12.176 12.176 0 0 0-.304 3.458l2.718.394c.05.468.133.931.251 1.387.125.454.283.899.473 1.33l-2.145 1.69a12.174 12.174 0 0 0 1.988 2.847l2.326-1.44a9.505 9.505 0 0 0 2.305 1.614l-.557 2.674c1.068.46 2.198.764 3.353.903l.857-2.599a9.499 9.499 0 0 0 2.801-.246l1.297 2.414a12.173 12.173 0 0 0 3.143-1.475l-1.01-2.53a9.505 9.505 0 0 0 1.995-1.992l2.529 1.009a12.173 12.173 0 0 0 1.467-3.147l-2.399-1.289a9.506 9.506 0 0 0 .247-2.809l2.585-.852a12.175 12.175 0 0 0-.315-1.713 12.177 12.177 0 0 0-.58-1.641l-2.678.557a9.507 9.507 0 0 0-1.613-2.304l1.442-2.328A12.176 12.176 0 0 0 60.1 23.02l-1.692 2.148a9.505 9.505 0 0 0-2.717-.729L55.3 21.73c-.29-.016-.58-.021-.871-.017zm.127 5.487c2.97-.027 5.706 1.95 6.51 4.949a6.68 6.68 0 0 1-4.72 8.173 6.68 6.68 0 0 1-8.172-4.719c-.952-3.554 1.164-7.223 4.718-8.175a6.659 6.659 0 0 1 1.664-.228zm.012.97a5.74 5.74 0 0 0-1.425.196 5.696 5.696 0 0 0-4.03 6.986 5.693 5.693 0 0 0 6.982 4.031A5.696 5.696 0 0 0 60.13 32.4a5.7 5.7 0 0 0-5.562-4.23zm.18 2.487a3.21 3.21 0 0 1 .703 6.307 3.21 3.21 0 1 1-.702-6.307z" fill="#4d4d4d"/><path d="M36.562 34.022a8.271 8.271 0 0 0-1.398.518l.485 2.66a5.705 5.705 0 0 0-1.758 1.758l-2.662-.485a8.271 8.271 0 0 0-.76 2.87l2.539.907a5.705 5.705 0 0 0 .184 1.238 5.705 5.705 0 0 0 .46 1.163l-1.746 2.058a8.271 8.271 0 0 0 2.1 2.1l2.058-1.747a5.705 5.705 0 0 0 2.401.648l.908 2.54a8.271 8.271 0 0 0 1.47-.25 8.271 8.271 0 0 0 1.4-.516l-.485-2.662a5.705 5.705 0 0 0 1.757-1.757l2.662.486a8.271 8.271 0 0 0 .76-2.87l-2.538-.908a5.705 5.705 0 0 0-.185-1.238 5.705 5.705 0 0 0-.46-1.163l1.747-2.058a8.271 8.271 0 0 0-2.1-2.1l-2.059 1.747a5.705 5.705 0 0 0-2.401-.648l-.908-2.539a8.271 8.271 0 0 0-1.47.248zm1.408 5.252a2.834 2.834 0 0 1 3.47 2.004 2.834 2.834 0 0 1-2.003 3.47 2.834 2.834 0 0 1-3.471-2.003 2.834 2.834 0 0 1 2.004-3.47z" fill="#fe890a"/></svg>