<svg xmlns="http://www.w3.org/2000/svg" viewBox="0 0 97.511 62.056" height="234.544" width="368.544"><defs><clipPath id="a"><path d="M190.966 255.653a49.017 49.017 0 0 0-17.118 3.15l2.67 5.763a42.667 42.667 0 0 1 14.448-2.563 42.667 42.667 0 0 1 22.934 6.743l4.384-4.725a49.017 49.017 0 0 0-27.318-8.368z" fill="gray" stroke-width="1.595" stroke-linecap="round"/></clipPath></defs><path d="M71.616 26.547a3.638 3.638 0 0 1-3.638 3.638 3.638 3.638 0 0 1-3.638-3.638 3.638 3.638 0 0 1 3.638-3.638 3.638 3.638 0 0 1 3.638 3.638z" fill="#fe890a"/><path d="M67.978 31.482v.685M71.468 30.037l.484.484M72.913 26.547h.685M71.468 23.057l.483-.484M67.978 21.611v-.684M64.488 23.057l-.484-.484M63.042 26.547h-.684M64.488 30.037l-.484.484" fill="none" stroke="#fe890a" stroke-width="1.488" stroke-linecap="round"/><path transform="translate(-102.5 -151.858) scale(.7626)" clip-path="url(#a)" d="M208.492 293.825l57.15-57.15m-59.267 57.15l57.15-57.15m-59.267 57.15l57.15-57.15m-59.266 57.15l57.15-57.15m-59.267 57.15l57.15-57.15m-59.267 57.15l57.15-57.15m-59.266 57.15l57.15-57.15m-59.267 57.15l57.15-57.15m-59.267 57.15l57.15-57.15m-59.266 57.15l57.15-57.15m-59.267 57.15l57.15-57.15m-59.267 57.15l57.15-57.15m-59.266 57.15l57.15-57.15m-59.267 57.15l57.15-57.15m-59.267 57.15l57.15-57.15m-59.266 57.15l57.15-57.15m-59.267 57.15l57.15-57.15m-59.267 57.15l57.15-57.15m-59.266 57.15l57.15-57.15m-59.267 57.15l57.15-57.15m-59.267 57.15l57.15-57.15m-59.266 57.15l57.15-57.15m-59.267 57.15l57.15-57.15m-59.267 57.15l57.15-57.15m-59.266 57.15l57.15-57.15m-59.267 57.15l57.15-57.15m-59.267 57.15l57.15-57.15m-59.266 57.15l57.15-57.15m-59.267 57.15l57.15-57.15m-59.267 57.15l57.15-57.15m-59.266 57.15l57.15-57.15m-59.267 57.15l57.15-57.15m-59.267 57.15l57.15-57.15m-59.266 57.15l57.15-57.15m-59.267 57.15l57.15-57.15m-59.267 57.15l57.15-57.15m-59.266 57.15l57.15-57.15m-59.267 57.15l57.15-57.15m-59.267 57.15l57.15-57.15m-59.266 57.15l57.15-57.15m-59.267 57.15l57.15-57.15" fill="none" stroke="#4d4d4d" stroke-width=".692"/><path d="M30.682 45.237a37.38 37.38 0 0 1 32.944 3.986" fill="none" stroke="#4d4d4d" stroke-width="1.216" stroke-linecap="round"/><path d="M30.19 25.835l28.915 20.01 7.033-15.278" fill="none" stroke="#fe890a" stroke-width=".529"/><path d="M30.19 25.835l8.186 16.801L63.613 28.28" fill="none" stroke="#4d4d4d" stroke-width=".529"/><path d="M35.151 35.973l-2.284-1.436 2.387-1.26zM54.756 33.28l-1.32 2.353-1.378-2.32z" fill="#4d4d4d"/><path d="M44.744 34.287l-1.584 2.184-1.1-2.464zM61.637 36.94l2.5 1.016-2.13 1.657z" fill="#fe890a"/><path d="M31.467 22.018l-7.518 2.62 6.059 5.036" fill="none" stroke="#4d4d4d" stroke-width=".921"/><path d="M29.621 22.627a6.08 6.08 0 0 1-1.095 5.96" fill="none" stroke="#4d4d4d" stroke-width=".861"/></svg>