<svg xmlns="http://www.w3.org/2000/svg" viewBox="0 0 97.511 62.056" height="234.544" width="368.544"><g color="#000" font-weight="400" font-family="sans-serif" white-space="normal"><path d="M29.752 24.097a.366.366 0 0 0-.366.366v8.728a.366.366 0 0 0 .366.366h8.43a.366.366 0 0 0 .365-.366v-8.728a.366.366 0 0 0-.366-.366zM40.07 24.097a.366.366 0 0 0-.366.366v8.728a.366.366 0 0 0 .366.366h13.436a.366.366 0 0 0 .366-.366v-8.728a.366.366 0 0 0-.366-.366z" style="line-height:normal;font-variant-ligatures:normal;font-variant-position:normal;font-variant-caps:normal;font-variant-numeric:normal;font-variant-alternates:normal;font-feature-settings:normal;text-indent:0;text-align:start;text-decoration-line:none;text-decoration-style:solid;text-decoration-color:#000;text-transform:none;text-orientation:mixed;shape-padding:0;isolation:auto;mix-blend-mode:normal" overflow="visible" fill="#4d4d4d"/><path d="M55.395 24.097a.366.366 0 0 0-.366.366v8.728a.366.366 0 0 0 .366.366H66.95a.366.366 0 0 0 .367-.366v-8.728a.366.366 0 0 0-.367-.366zM29.752 34.713a.366.366 0 0 0-.366.366v13.19a.366.366 0 0 0 .366.367h14.083a.366.366 0 0 0 .367-.366V35.08a.366.366 0 0 0-.367-.367z" style="line-height:normal;font-variant-ligatures:normal;font-variant-position:normal;font-variant-caps:normal;font-variant-numeric:normal;font-variant-alternates:normal;font-feature-settings:normal;text-indent:0;text-align:start;text-decoration-line:none;text-decoration-style:solid;text-decoration-color:#000;text-transform:none;text-orientation:mixed;shape-padding:0;isolation:auto;mix-blend-mode:normal" overflow="visible" fill="#fe890a"/><path d="M45.724 34.713a.366.366 0 0 0-.366.366v13.19a.366.366 0 0 0 .366.367H66.95a.366.366 0 0 0 .367-.366V35.08a.366.366 0 0 0-.367-.367z" style="line-height:normal;font-variant-ligatures:normal;font-variant-position:normal;font-variant-caps:normal;font-variant-numeric:normal;font-variant-alternates:normal;font-feature-settings:normal;text-indent:0;text-align:start;text-decoration-line:none;text-decoration-style:solid;text-decoration-color:#000;text-transform:none;text-orientation:mixed;shape-padding:0;isolation:auto;mix-blend-mode:normal" overflow="visible" fill="#4d4d4d"/></g></svg>